<mxfile host="65bd71144e">
    <diagram id="JCKynMB1myW-5ovFCjpT" name="PÃ¡gina-1">
        <mxGraphModel dx="1101" dy="800" grid="0" gridSize="10" guides="1" tooltips="1" connect="1" arrows="1" fold="1" page="0" pageScale="1" pageWidth="827" pageHeight="1169" math="0" shadow="0">
            <root>
                <mxCell id="0"/>
                <mxCell id="1" parent="0"/>
                <mxCell id="2" value="" style="shape=table;html=1;whiteSpace=wrap;startSize=0;container=1;collapsible=0;childLayout=tableLayout;" parent="1" vertex="1">
                    <mxGeometry x="42" y="389" width="730" height="210" as="geometry"/>
                </mxCell>
                <mxCell id="8" style="shape=tableRow;horizontal=0;startSize=0;swimlaneHead=0;swimlaneBody=0;top=0;left=0;bottom=0;right=0;collapsible=0;dropTarget=0;fillColor=none;points=[[0,0.5],[1,0.5]];portConstraint=eastwest;" parent="2" vertex="1">
                    <mxGeometry width="730" height="70" as="geometry"/>
                </mxCell>
                <mxCell id="23" value="&lt;font style=&quot;font-size: 24px&quot;&gt;P1&lt;/font&gt;" style="shape=partialRectangle;html=1;whiteSpace=wrap;connectable=0;fillColor=none;top=0;left=0;bottom=0;right=0;overflow=hidden;" parent="8" vertex="1">
                    <mxGeometry width="146" height="70" as="geometry">
                        <mxRectangle width="146" height="70" as="alternateBounds"/>
                    </mxGeometry>
                </mxCell>
                <mxCell id="9" value="1,4,8,10" style="shape=partialRectangle;html=1;whiteSpace=wrap;connectable=0;fillColor=#f8cecc;top=0;left=0;bottom=0;right=0;overflow=hidden;strokeColor=#b85450;" parent="8" vertex="1">
                    <mxGeometry x="146" width="146" height="70" as="geometry">
                        <mxRectangle width="146" height="70" as="alternateBounds"/>
                    </mxGeometry>
                </mxCell>
                <mxCell id="10" value="5,9,11,16" style="shape=partialRectangle;html=1;whiteSpace=wrap;connectable=0;fillColor=#f8cecc;top=0;left=0;bottom=0;right=0;overflow=hidden;strokeColor=#b85450;" parent="8" vertex="1">
                    <mxGeometry x="292" width="146" height="70" as="geometry">
                        <mxRectangle width="146" height="70" as="alternateBounds"/>
                    </mxGeometry>
                </mxCell>
                <mxCell id="11" value="2,6,12,15" style="shape=partialRectangle;html=1;whiteSpace=wrap;connectable=0;fillColor=#f8cecc;top=0;left=0;bottom=0;right=0;overflow=hidden;strokeColor=#b85450;" parent="8" vertex="1">
                    <mxGeometry x="438" width="146" height="70" as="geometry">
                        <mxRectangle width="146" height="70" as="alternateBounds"/>
                    </mxGeometry>
                </mxCell>
                <mxCell id="12" value="3,7,13,14" style="shape=partialRectangle;html=1;whiteSpace=wrap;connectable=0;fillColor=#f8cecc;top=0;left=0;bottom=0;right=0;overflow=hidden;strokeColor=#b85450;" parent="8" vertex="1">
                    <mxGeometry x="584" width="146" height="70" as="geometry">
                        <mxRectangle width="146" height="70" as="alternateBounds"/>
                    </mxGeometry>
                </mxCell>
                <mxCell id="13" style="shape=tableRow;horizontal=0;startSize=0;swimlaneHead=0;swimlaneBody=0;top=0;left=0;bottom=0;right=0;collapsible=0;dropTarget=0;fillColor=none;points=[[0,0.5],[1,0.5]];portConstraint=eastwest;" parent="2" vertex="1">
                    <mxGeometry y="70" width="730" height="70" as="geometry"/>
                </mxCell>
                <mxCell id="24" value="&lt;font style=&quot;font-size: 24px&quot;&gt;P2&lt;/font&gt;" style="shape=partialRectangle;html=1;whiteSpace=wrap;connectable=0;fillColor=none;top=0;left=0;bottom=0;right=0;overflow=hidden;" parent="13" vertex="1">
                    <mxGeometry width="146" height="70" as="geometry">
                        <mxRectangle width="146" height="70" as="alternateBounds"/>
                    </mxGeometry>
                </mxCell>
                <mxCell id="14" value="1,2,9,15" style="shape=partialRectangle;html=1;whiteSpace=wrap;connectable=0;fillColor=#d5e8d4;top=0;left=0;bottom=0;right=0;overflow=hidden;strokeColor=#82b366;" parent="13" vertex="1">
                    <mxGeometry x="146" width="146" height="70" as="geometry">
                        <mxRectangle width="146" height="70" as="alternateBounds"/>
                    </mxGeometry>
                </mxCell>
                <mxCell id="15" value="3,4,10,13" style="shape=partialRectangle;html=1;whiteSpace=wrap;connectable=0;fillColor=#d5e8d4;top=0;left=0;bottom=0;right=0;overflow=hidden;strokeColor=#82b366;" parent="13" vertex="1">
                    <mxGeometry x="292" width="146" height="70" as="geometry">
                        <mxRectangle width="146" height="70" as="alternateBounds"/>
                    </mxGeometry>
                </mxCell>
                <mxCell id="16" value="5,6,8,16" style="shape=partialRectangle;html=1;whiteSpace=wrap;connectable=0;fillColor=#d5e8d4;top=0;left=0;bottom=0;right=0;overflow=hidden;strokeColor=#82b366;" parent="13" vertex="1">
                    <mxGeometry x="438" width="146" height="70" as="geometry">
                        <mxRectangle width="146" height="70" as="alternateBounds"/>
                    </mxGeometry>
                </mxCell>
                <mxCell id="17" value="7,11,12,14" style="shape=partialRectangle;html=1;whiteSpace=wrap;connectable=0;fillColor=#d5e8d4;top=0;left=0;bottom=0;right=0;overflow=hidden;strokeColor=#82b366;" parent="13" vertex="1">
                    <mxGeometry x="584" width="146" height="70" as="geometry">
                        <mxRectangle width="146" height="70" as="alternateBounds"/>
                    </mxGeometry>
                </mxCell>
                <mxCell id="18" style="shape=tableRow;horizontal=0;startSize=0;swimlaneHead=0;swimlaneBody=0;top=0;left=0;bottom=0;right=0;collapsible=0;dropTarget=0;fillColor=none;points=[[0,0.5],[1,0.5]];portConstraint=eastwest;" parent="2" vertex="1">
                    <mxGeometry y="140" width="730" height="70" as="geometry"/>
                </mxCell>
                <mxCell id="25" value="&lt;span style=&quot;font-size: 24px&quot;&gt;C&lt;/span&gt;" style="shape=partialRectangle;html=1;whiteSpace=wrap;connectable=0;fillColor=none;top=0;left=0;bottom=0;right=0;overflow=hidden;" parent="18" vertex="1">
                    <mxGeometry width="146" height="70" as="geometry">
                        <mxRectangle width="146" height="70" as="alternateBounds"/>
                    </mxGeometry>
                </mxCell>
                <mxCell id="19" value="&lt;span style=&quot;color: rgb(0 , 0 , 0) ; font-family: &amp;#34;helvetica&amp;#34; ; font-size: 12px ; font-style: normal ; font-weight: 400 ; letter-spacing: normal ; text-align: center ; text-indent: 0px ; text-transform: none ; word-spacing: 0px ; display: inline ; float: none&quot;&gt;1,2,&lt;/span&gt;&lt;span style=&quot;font-family: &amp;#34;helvetica&amp;#34; ; font-size: 12px ; font-style: normal ; font-weight: 400 ; letter-spacing: normal ; text-align: center ; text-indent: 0px ; text-transform: none ; word-spacing: 0px ; display: inline ; float: none&quot;&gt;&lt;font color=&quot;#ff005e&quot;&gt;4&lt;/font&gt;&lt;/span&gt;&lt;span style=&quot;color: rgb(0 , 0 , 0) ; font-family: &amp;#34;helvetica&amp;#34; ; font-size: 12px ; font-style: normal ; font-weight: 400 ; letter-spacing: normal ; text-align: center ; text-indent: 0px ; text-transform: none ; word-spacing: 0px ; display: inline ; float: none&quot;&gt;,15&lt;/span&gt;" style="shape=partialRectangle;html=1;whiteSpace=wrap;connectable=0;fillColor=#d5e8d4;top=0;left=0;bottom=0;right=0;overflow=hidden;strokeColor=#82b366;" parent="18" vertex="1">
                    <mxGeometry x="146" width="146" height="70" as="geometry">
                        <mxRectangle width="146" height="70" as="alternateBounds"/>
                    </mxGeometry>
                </mxCell>
                <mxCell id="20" value="5,9,11,16" style="shape=partialRectangle;html=1;whiteSpace=wrap;connectable=0;fillColor=#f8cecc;top=0;left=0;bottom=0;right=0;overflow=hidden;strokeColor=#b85450;" parent="18" vertex="1">
                    <mxGeometry x="292" width="146" height="70" as="geometry">
                        <mxRectangle width="146" height="70" as="alternateBounds"/>
                    </mxGeometry>
                </mxCell>
                <mxCell id="21" value="&lt;font color=&quot;#ff0d35&quot;&gt;5,&lt;/font&gt;6,8,&lt;font color=&quot;#ff1940&quot;&gt;13&lt;/font&gt;" style="shape=partialRectangle;html=1;whiteSpace=wrap;connectable=0;fillColor=#d5e8d4;top=0;left=0;bottom=0;right=0;overflow=hidden;strokeColor=#82b366;" parent="18" vertex="1">
                    <mxGeometry x="438" width="146" height="70" as="geometry">
                        <mxRectangle width="146" height="70" as="alternateBounds"/>
                    </mxGeometry>
                </mxCell>
                <mxCell id="22" value="7,&lt;font color=&quot;#ff171f&quot;&gt;10&lt;/font&gt;,12,14" style="shape=partialRectangle;html=1;whiteSpace=wrap;connectable=0;fillColor=#d5e8d4;top=0;left=0;bottom=0;right=0;overflow=hidden;strokeColor=#82b366;" parent="18" vertex="1">
                    <mxGeometry x="584" width="146" height="70" as="geometry">
                        <mxRectangle width="146" height="70" as="alternateBounds"/>
                    </mxGeometry>
                </mxCell>
                <mxCell id="26" value="" style="shape=table;html=1;whiteSpace=wrap;startSize=0;container=1;collapsible=0;childLayout=tableLayout;" parent="1" vertex="1">
                    <mxGeometry x="90" y="100" width="600" height="240" as="geometry"/>
                </mxCell>
                <mxCell id="27" style="shape=tableRow;horizontal=0;startSize=0;swimlaneHead=0;swimlaneBody=0;top=0;left=0;bottom=0;right=0;collapsible=0;dropTarget=0;fillColor=none;points=[[0,0.5],[1,0.5]];portConstraint=eastwest;" parent="26" vertex="1">
                    <mxGeometry width="600" height="48" as="geometry"/>
                </mxCell>
                <mxCell id="28" value="tabla de distancias" style="shape=partialRectangle;html=1;whiteSpace=wrap;connectable=0;fillColor=none;top=0;left=0;bottom=0;right=0;overflow=hidden;" parent="27" vertex="1">
                    <mxGeometry width="120" height="48" as="geometry">
                        <mxRectangle width="120" height="48" as="alternateBounds"/>
                    </mxGeometry>
                </mxCell>
                <mxCell id="29" value="SITIO 1" style="shape=partialRectangle;html=1;whiteSpace=wrap;connectable=0;fillColor=none;top=0;left=0;bottom=0;right=0;overflow=hidden;" parent="27" vertex="1">
                    <mxGeometry x="120" width="120" height="48" as="geometry">
                        <mxRectangle width="120" height="48" as="alternateBounds"/>
                    </mxGeometry>
                </mxCell>
                <mxCell id="30" value="&lt;span&gt;SITIO 2&lt;/span&gt;" style="shape=partialRectangle;html=1;whiteSpace=wrap;connectable=0;fillColor=none;top=0;left=0;bottom=0;right=0;overflow=hidden;strokeColor=#B8B7B4;" parent="27" vertex="1">
                    <mxGeometry x="240" width="122" height="48" as="geometry">
                        <mxRectangle width="122" height="48" as="alternateBounds"/>
                    </mxGeometry>
                </mxCell>
                <mxCell id="31" value="&lt;span&gt;SITIO 3&lt;/span&gt;" style="shape=partialRectangle;html=1;whiteSpace=wrap;connectable=0;fillColor=none;top=0;left=0;bottom=0;right=0;overflow=hidden;" parent="27" vertex="1">
                    <mxGeometry x="362" width="118" height="48" as="geometry">
                        <mxRectangle width="118" height="48" as="alternateBounds"/>
                    </mxGeometry>
                </mxCell>
                <mxCell id="32" value="&lt;span&gt;SITIO 4&lt;/span&gt;" style="shape=partialRectangle;html=1;whiteSpace=wrap;connectable=0;fillColor=none;top=0;left=0;bottom=0;right=0;overflow=hidden;" parent="27" vertex="1">
                    <mxGeometry x="480" width="120" height="48" as="geometry">
                        <mxRectangle width="120" height="48" as="alternateBounds"/>
                    </mxGeometry>
                </mxCell>
                <mxCell id="33" style="shape=tableRow;horizontal=0;startSize=0;swimlaneHead=0;swimlaneBody=0;top=0;left=0;bottom=0;right=0;collapsible=0;dropTarget=0;fillColor=none;points=[[0,0.5],[1,0.5]];portConstraint=eastwest;" parent="26" vertex="1">
                    <mxGeometry y="48" width="600" height="48" as="geometry"/>
                </mxCell>
                <mxCell id="34" value="VIGILANTE 5" style="shape=partialRectangle;html=1;whiteSpace=wrap;connectable=0;fillColor=none;top=0;left=0;bottom=0;right=0;overflow=hidden;" parent="33" vertex="1">
                    <mxGeometry width="120" height="48" as="geometry">
                        <mxRectangle width="120" height="48" as="alternateBounds"/>
                    </mxGeometry>
                </mxCell>
                <mxCell id="35" value="50" style="shape=partialRectangle;html=1;whiteSpace=wrap;connectable=0;fillColor=none;top=0;left=0;bottom=0;right=0;overflow=hidden;" parent="33" vertex="1">
                    <mxGeometry x="120" width="120" height="48" as="geometry">
                        <mxRectangle width="120" height="48" as="alternateBounds"/>
                    </mxGeometry>
                </mxCell>
                <mxCell id="36" value="20" style="shape=partialRectangle;html=1;whiteSpace=wrap;connectable=0;fillColor=none;top=0;left=0;bottom=0;right=0;overflow=hidden;strokeColor=#B8B7B4;" parent="33" vertex="1">
                    <mxGeometry x="240" width="122" height="48" as="geometry">
                        <mxRectangle width="122" height="48" as="alternateBounds"/>
                    </mxGeometry>
                </mxCell>
                <mxCell id="37" value="30" style="shape=partialRectangle;html=1;whiteSpace=wrap;connectable=0;fillColor=none;top=0;left=0;bottom=0;right=0;overflow=hidden;" parent="33" vertex="1">
                    <mxGeometry x="362" width="118" height="48" as="geometry">
                        <mxRectangle width="118" height="48" as="alternateBounds"/>
                    </mxGeometry>
                </mxCell>
                <mxCell id="38" value="60" style="shape=partialRectangle;html=1;whiteSpace=wrap;connectable=0;fillColor=none;top=0;left=0;bottom=0;right=0;overflow=hidden;" parent="33" vertex="1">
                    <mxGeometry x="480" width="120" height="48" as="geometry">
                        <mxRectangle width="120" height="48" as="alternateBounds"/>
                    </mxGeometry>
                </mxCell>
                <mxCell id="39" style="shape=tableRow;horizontal=0;startSize=0;swimlaneHead=0;swimlaneBody=0;top=0;left=0;bottom=0;right=0;collapsible=0;dropTarget=0;fillColor=none;points=[[0,0.5],[1,0.5]];portConstraint=eastwest;" parent="26" vertex="1">
                    <mxGeometry y="96" width="600" height="48" as="geometry"/>
                </mxCell>
                <mxCell id="40" value="VIGILANTE&amp;nbsp; 9" style="shape=partialRectangle;html=1;whiteSpace=wrap;connectable=0;fillColor=none;top=0;left=0;bottom=0;right=0;overflow=hidden;" parent="39" vertex="1">
                    <mxGeometry width="120" height="48" as="geometry">
                        <mxRectangle width="120" height="48" as="alternateBounds"/>
                    </mxGeometry>
                </mxCell>
                <mxCell id="41" value="10" style="shape=partialRectangle;html=1;whiteSpace=wrap;connectable=0;fillColor=none;top=0;left=0;bottom=0;right=0;overflow=hidden;" parent="39" vertex="1">
                    <mxGeometry x="120" width="120" height="48" as="geometry">
                        <mxRectangle width="120" height="48" as="alternateBounds"/>
                    </mxGeometry>
                </mxCell>
                <mxCell id="42" value="20" style="shape=partialRectangle;html=1;whiteSpace=wrap;connectable=0;fillColor=none;top=0;left=0;bottom=0;right=0;overflow=hidden;strokeColor=#B8B7B4;" parent="39" vertex="1">
                    <mxGeometry x="240" width="122" height="48" as="geometry">
                        <mxRectangle width="122" height="48" as="alternateBounds"/>
                    </mxGeometry>
                </mxCell>
                <mxCell id="43" value="30" style="shape=partialRectangle;html=1;whiteSpace=wrap;connectable=0;fillColor=none;top=0;left=0;bottom=0;right=0;overflow=hidden;" parent="39" vertex="1">
                    <mxGeometry x="362" width="118" height="48" as="geometry">
                        <mxRectangle width="118" height="48" as="alternateBounds"/>
                    </mxGeometry>
                </mxCell>
                <mxCell id="44" value="20" style="shape=partialRectangle;html=1;whiteSpace=wrap;connectable=0;fillColor=none;top=0;left=0;bottom=0;right=0;overflow=hidden;" parent="39" vertex="1">
                    <mxGeometry x="480" width="120" height="48" as="geometry">
                        <mxRectangle width="120" height="48" as="alternateBounds"/>
                    </mxGeometry>
                </mxCell>
                <mxCell id="45" style="shape=tableRow;horizontal=0;startSize=0;swimlaneHead=0;swimlaneBody=0;top=0;left=0;bottom=0;right=0;collapsible=0;dropTarget=0;fillColor=none;points=[[0,0.5],[1,0.5]];portConstraint=eastwest;" parent="26" vertex="1">
                    <mxGeometry y="144" width="600" height="48" as="geometry"/>
                </mxCell>
                <mxCell id="46" value="VIGILANTE 11" style="shape=partialRectangle;html=1;whiteSpace=wrap;connectable=0;fillColor=none;top=0;left=0;bottom=0;right=0;overflow=hidden;" parent="45" vertex="1">
                    <mxGeometry width="120" height="48" as="geometry">
                        <mxRectangle width="120" height="48" as="alternateBounds"/>
                    </mxGeometry>
                </mxCell>
                <mxCell id="47" value="20" style="shape=partialRectangle;html=1;whiteSpace=wrap;connectable=0;fillColor=none;top=0;left=0;bottom=0;right=0;overflow=hidden;" parent="45" vertex="1">
                    <mxGeometry x="120" width="120" height="48" as="geometry">
                        <mxRectangle width="120" height="48" as="alternateBounds"/>
                    </mxGeometry>
                </mxCell>
                <mxCell id="48" value="10" style="shape=partialRectangle;html=1;whiteSpace=wrap;connectable=0;fillColor=none;top=0;left=0;bottom=0;right=0;overflow=hidden;strokeColor=#B8B7B4;" parent="45" vertex="1">
                    <mxGeometry x="240" width="122" height="48" as="geometry">
                        <mxRectangle width="122" height="48" as="alternateBounds"/>
                    </mxGeometry>
                </mxCell>
                <mxCell id="49" value="50" style="shape=partialRectangle;html=1;whiteSpace=wrap;connectable=0;fillColor=none;top=0;left=0;bottom=0;right=0;overflow=hidden;" parent="45" vertex="1">
                    <mxGeometry x="362" width="118" height="48" as="geometry">
                        <mxRectangle width="118" height="48" as="alternateBounds"/>
                    </mxGeometry>
                </mxCell>
                <mxCell id="50" value="60" style="shape=partialRectangle;html=1;whiteSpace=wrap;connectable=0;fillColor=none;top=0;left=0;bottom=0;right=0;overflow=hidden;" parent="45" vertex="1">
                    <mxGeometry x="480" width="120" height="48" as="geometry">
                        <mxRectangle width="120" height="48" as="alternateBounds"/>
                    </mxGeometry>
                </mxCell>
                <mxCell id="51" style="shape=tableRow;horizontal=0;startSize=0;swimlaneHead=0;swimlaneBody=0;top=0;left=0;bottom=0;right=0;collapsible=0;dropTarget=0;fillColor=none;points=[[0,0.5],[1,0.5]];portConstraint=eastwest;" parent="26" vertex="1">
                    <mxGeometry y="192" width="600" height="48" as="geometry"/>
                </mxCell>
                <mxCell id="52" value="VIGILANTE&amp;nbsp; 16" style="shape=partialRectangle;html=1;whiteSpace=wrap;connectable=0;fillColor=none;top=0;left=0;bottom=0;right=0;overflow=hidden;" parent="51" vertex="1">
                    <mxGeometry width="120" height="48" as="geometry">
                        <mxRectangle width="120" height="48" as="alternateBounds"/>
                    </mxGeometry>
                </mxCell>
                <mxCell id="53" value="60" style="shape=partialRectangle;html=1;whiteSpace=wrap;connectable=0;fillColor=none;top=0;left=0;bottom=0;right=0;overflow=hidden;" parent="51" vertex="1">
                    <mxGeometry x="120" width="120" height="48" as="geometry">
                        <mxRectangle width="120" height="48" as="alternateBounds"/>
                    </mxGeometry>
                </mxCell>
                <mxCell id="54" value="40" style="shape=partialRectangle;html=1;whiteSpace=wrap;connectable=0;fillColor=none;top=0;left=0;bottom=0;right=0;overflow=hidden;strokeColor=#B8B7B4;" parent="51" vertex="1">
                    <mxGeometry x="240" width="122" height="48" as="geometry">
                        <mxRectangle width="122" height="48" as="alternateBounds"/>
                    </mxGeometry>
                </mxCell>
                <mxCell id="55" value="20" style="shape=partialRectangle;html=1;whiteSpace=wrap;connectable=0;fillColor=none;top=0;left=0;bottom=0;right=0;overflow=hidden;" parent="51" vertex="1">
                    <mxGeometry x="362" width="118" height="48" as="geometry">
                        <mxRectangle width="118" height="48" as="alternateBounds"/>
                    </mxGeometry>
                </mxCell>
                <mxCell id="56" value="15" style="shape=partialRectangle;html=1;whiteSpace=wrap;connectable=0;fillColor=none;top=0;left=0;bottom=0;right=0;overflow=hidden;" parent="51" vertex="1">
                    <mxGeometry x="480" width="120" height="48" as="geometry">
                        <mxRectangle width="120" height="48" as="alternateBounds"/>
                    </mxGeometry>
                </mxCell>
                <mxCell id="58" value="" style="html=1;whitespace=wrap;fontSize=24;strokeColor=#B8354F;fillColor=none;strokeWidth=6;" parent="1" vertex="1">
                    <mxGeometry x="330" y="377" width="150" height="260" as="geometry"/>
                </mxCell>
                <mxCell id="59" value="5-&amp;gt;3" style="text;html=1;align=center;verticalAlign=middle;resizable=0;points=[];autosize=1;strokeColor=none;fillColor=none;fontColor=#FF2B4F;" vertex="1" parent="1">
                    <mxGeometry x="49" y="647" width="34" height="18" as="geometry"/>
                </mxCell>
                <mxCell id="60" value="9&amp;gt;4" style="text;html=1;align=center;verticalAlign=middle;resizable=0;points=[];autosize=1;strokeColor=none;fillColor=none;fontColor=#FF2B4F;" vertex="1" parent="1">
                    <mxGeometry x="49" y="668" width="30" height="18" as="geometry"/>
                </mxCell>
                <mxCell id="62" value="" style="endArrow=classic;html=1;fontColor=#FF1940;" edge="1" parent="1">
                    <mxGeometry width="50" height="50" relative="1" as="geometry">
                        <mxPoint x="382" y="439" as="sourcePoint"/>
                        <mxPoint x="382" y="479" as="targetPoint"/>
                        <Array as="points"/>
                    </mxGeometry>
                </mxCell>
                <mxCell id="63" value="" style="endArrow=classic;html=1;fontColor=#FF1940;" edge="1" parent="1">
                    <mxGeometry width="50" height="50" relative="1" as="geometry">
                        <mxPoint x="396" y="439" as="sourcePoint"/>
                        <mxPoint x="396" y="479" as="targetPoint"/>
                        <Array as="points"/>
                    </mxGeometry>
                </mxCell>
                <mxCell id="64" value="" style="endArrow=classic;html=1;fontColor=#FF1940;" edge="1" parent="1">
                    <mxGeometry width="50" height="50" relative="1" as="geometry">
                        <mxPoint x="411" y="440" as="sourcePoint"/>
                        <mxPoint x="411" y="480" as="targetPoint"/>
                        <Array as="points"/>
                    </mxGeometry>
                </mxCell>
                <mxCell id="65" value="" style="endArrow=classic;html=1;fontColor=#FF1940;" edge="1" parent="1">
                    <mxGeometry width="50" height="50" relative="1" as="geometry">
                        <mxPoint x="425" y="440" as="sourcePoint"/>
                        <mxPoint x="425" y="480" as="targetPoint"/>
                        <Array as="points"/>
                    </mxGeometry>
                </mxCell>
                <mxCell id="66" value="11-&amp;gt;10" style="text;html=1;align=center;verticalAlign=middle;resizable=0;points=[];autosize=1;strokeColor=none;fillColor=none;fontColor=#FF2B4F;" vertex="1" parent="1">
                    <mxGeometry x="47" y="690" width="47" height="18" as="geometry"/>
                </mxCell>
                <mxCell id="67" value="16-&amp;gt;13&lt;br&gt;" style="text;html=1;align=center;verticalAlign=middle;resizable=0;points=[];autosize=1;strokeColor=none;fillColor=none;fontColor=#FF2B4F;" vertex="1" parent="1">
                    <mxGeometry x="49" y="715" width="48" height="18" as="geometry"/>
                </mxCell>
            </root>
        </mxGraphModel>
    </diagram>
</mxfile>